<?xml version="1.0" encoding="utf-8"?>
<!-- Generator: Adobe Illustrator 16.0.0, SVG Export Plug-In . SVG Version: 6.00 Build 0)  -->
<!DOCTYPE svg PUBLIC "-//W3C//DTD SVG 1.1//EN" "http://www.w3.org/Graphics/SVG/1.1/DTD/svg11.dtd">
<svg version="1.1" id="Layer_1" xmlns="http://www.w3.org/2000/svg" xmlns:xlink="http://www.w3.org/1999/xlink" x="0px" y="0px"
	 width="6155.214px" height="2500px" viewBox="0 0 6155.214 2500" enable-background="new 0 0 6155.214 2500" xml:space="preserve">
<g id="Layer_1_1_">
	<rect x="3" display="none" fill="#00FFFF" width="2500" height="2500"/>
	<g>
		<polygon fill="#FFFFFF" points="974,881 469,881 469,223 302,223 302,1041 974,1041 		"/>
		<rect x="24" y="19" fill="none" stroke="#FFFFFF" stroke-width="42" stroke-miterlimit="10" width="1226" height="1223"/>
		<path fill="#FFFFFF" d="M2108.244,1542.903c-30.342-28.252-66.219-51.118-106.66-67.646
			c-40.825-16.649-84.694-25.258-130.387-25.258H1529v826h169v-188h173.197c45.576,0,89.324-8.49,130.053-24.688
			c40.561-16.15,76.561-38.865,107.01-67.226c30.59-28.501,55.172-62.548,73.068-101.067c18.196-39.195,27.42-81.462,27.42-125.552
			c0-44.069-9.225-86.314-27.428-125.561C2163.43,1605.421,2138.854,1571.438,2108.244,1542.903z M2027.574,1828.608
			c-9.049,19.38-20.889,35.806-36.215,50.217c-15.265,14.354-33.436,26.081-54.018,34.495c-20.272,8.298-42.527,12.68-66.146,12.68
			H1698v-313h173.197c23.585,0,45.854,3.772,66.128,12.051c20.598,8.439,38.782,19.775,54.028,34.108
			c15.254,14.353,27.068,30.779,36.106,50.421c8.74,19.014,12.995,38.57,12.995,59.904
			C2040.456,1790.738,2036.242,1810.039,2027.574,1828.608z"/>
		<rect x="1256" y="1254" fill="none" stroke="#FFFFFF" stroke-width="42" stroke-miterlimit="10" width="1224" height="1221"/>
		<path fill="#FFFFFF" stroke="#FFFFFF" stroke-width="41.3209" stroke-miterlimit="10" d="M641.102,1258.902
			c-337.424,0-610.96,273.535-610.96,610.959c0,337.425,273.537,610.959,610.96,610.959c337.42,0,610.959-273.534,610.959-610.959
			C1252.061,1532.438,978.521,1258.902,641.102,1258.902z M472.453,1965.796c12.109,30.291,28.849,57.425,49.758,80.668
			c20.594,22.914,45.02,41.318,72.605,54.712c27.064,13.172,55.687,19.571,87.523,19.571c30.322,0,58.748-6.077,86.889-18.563
			c27.716-12.301,52.189-30.125,72.74-52.979l32.178-35.787l108.447,117.413l-27.49,29.758
			c-34.692,37.551-75.794,67.348-122.159,88.567c-46.814,21.438-97.488,32.312-150.604,32.312c-53.21,0-103.979-11.101-150.89-32.99
			c-46.275-21.574-87.112-51.334-121.374-88.453c-34.046-36.832-61.298-80.619-80.993-130.12
			c-19.756-49.628-29.774-103.293-29.774-159.495c0-56.205,10.019-109.871,29.78-159.508c19.646-49.39,46.846-93.299,80.837-130.497
			c34.31-37.544,75.194-67.538,121.524-89.155c46.954-21.891,97.717-32.988,150.89-32.988c53.18,0,103.942,11.098,150.886,32.982
			c46.245,21.576,87.243,51.513,121.868,88.979l27.797,30.071l-108.201,114.707l-31.913-33.603
			c-20.935-22.053-45.81-39.938-73.925-53.168c-27.556-12.952-55.856-19.254-86.511-19.254c-29.849,0-57.387,6.251-84.188,19.109
			c-27.547,13.224-52.353,31.343-73.72,53.854c-21.312,22.466-38.516,49.438-51.12,80.164
			c-12.516,30.475-18.859,63.546-18.859,98.305C454.453,1903.85,460.506,1935.947,472.453,1965.796z"/>
		<polygon fill="#FFFFFF" stroke="#FFFFFF" stroke-width="42" stroke-miterlimit="10" points="1781.811,736 1939.438,736 
			1860.627,510.188 		"/>
		<path fill="#FFFFFF" stroke="#FFFFFF" stroke-width="41" stroke-miterlimit="10" d="M1860.068,25.177
			c-337.424,0-610.961,273.535-610.961,610.959c0,337.425,273.537,610.959,610.961,610.959
			c337.42,0,610.959-273.534,610.959-610.959C2471.027,298.712,2197.489,25.177,1860.068,25.177z M2046.445,1043.5l-51.682-151
			h-269.312l-51.683,151h-167.429l285.938-815h136.73l284.784,815H2046.445z"/>
	</g>
</g>
<g id="Layer_2">
	<text transform="matrix(1 0 0 1 2771.7178 1065.3418)" fill="#FFFFFF" font-family="'Roboto-Regular'" font-size="600">LA Casting</text>
	<text transform="matrix(1 0 0 1 2771.7178 1785.3418)" fill="#FFFFFF" font-family="'Roboto-Regular'" font-size="600">Photography</text>
</g>
</svg>
